PathFileType	4	(X/Y/Z)	C:\Users\Basilio\Documents\Thesis Gigler\squatting_fais\c3dfiles\047\SJ_pre2\markers_experimental.trc
DataRate	CameraRate	NumFrames	NumMarkers	Units	OrigDataRate	OrigDataStartFrame	OrigNumFrames
200.000000	200.000000	4	60	mm	200.000000	0	1636
Frame#	Time	FHD			LBHD			RBHD			C7			T10			CLAV			LSHO			LUUPA			LMUPA			LDUPA			LLEP			LMEP			LRAD			LUL			LRFIN			RSHO			RUPA1			RMUPA			RDUPA			RLEP			RMEP			RRAD			RUL			RUFIN			RASI			USACR			LSACR			RSACR			LTHI1			LTHI2			LTHI3			LTHI4			LLFC			LMFC			LTIB1			LTIB2			LTIB3			LTIB4			LLMAL			LMMAL			LMT1			LMT2			LMT5			RTHI			RTHI2			RTHI3			RTHI4			RLFC			RMFC			RTIB1			RTIB2			RTIB3			RTIB4			RLMAL			RMMAL			RHEE			RMT1			RMT2			RMT5			LASI			
		X1	Y1	Z1	X2	Y2	Z2	X3	Y3	Z3	X4	Y4	Z4	X5	Y5	Z5	X6	Y6	Z6	X7	Y7	Z7	X8	Y8	Z8	X9	Y9	Z9	X10	Y10	Z10	X11	Y11	Z11	X12	Y12	Z12	X13	Y13	Z13	X14	Y14	Z14	X15	Y15	Z15	X16	Y16	Z16	X17	Y17	Z17	X18	Y18	Z18	X19	Y19	Z19	X20	Y20	Z20	X21	Y21	Z21	X22	Y22	Z22	X23	Y23	Z23	X24	Y24	Z24	X25	Y25	Z25	X26	Y26	Z26	X27	Y27	Z27	X28	Y28	Z28	X29	Y29	Z29	X30	Y30	Z30	X31	Y31	Z31	X32	Y32	Z32	X33	Y33	Z33	X34	Y34	Z34	X35	Y35	Z35	X36	Y36	Z36	X37	Y37	Z37	X38	Y38	Z38	X39	Y39	Z39	X40	Y40	Z40	X41	Y41	Z41	X42	Y42	Z42	X43	Y43	Z43	X44	Y44	Z44	X45	Y45	Z45	X46	Y46	Z46	X47	Y47	Z47	X48	Y48	Z48	X49	Y49	Z49	X50	Y50	Z50	X51	Y51	Z51	X52	Y52	Z52	X53	Y53	Z53	X54	Y54	Z54	X55	Y55	Z55	X56	Y56	Z56	X57	Y57	Z57	X58	Y58	Z58	X59	Y59	Z59	X60	Y60	Z60	

1	0	38.92950820922852	1462.307250976563	-939.999206542969	-62.36575317382814	1584.029174804688	-1031.258178710938	-77.9027786254883	1613.164916992188	-887.1712646484377	-266.0032653808594	1504.017578125	-957.5869750976565	-408.1400146484376	1194.796630859375	-939.3812255859377	-160.5354156494141	1374.144775390625	-956.6291503906252	-209.5277709960938	1424.176635742188	-1133.842041015625	-348.6521301269532	1336.79150390625	-1252.675048828125	-318.5857238769532	1299.225830078125	-1271.247436523438	-374.1784973144532	1284.342163085938	-1290.911010742188	-382.6377563476563	1218.08447265625	-1321.0009765625	-441.973602294922	1206.949462890625	-1243.866943359375	-309.1430053710938	1055.787719726563	-1141.55908203125	-276.8496704101563	1014.727172851563	-1199.74560546875	-248.4834899902344	1042.145263671875	-1106.756713867188	-204.8310852050782	1449.12744140625	-792.5766601562502	-333.2113342285157	1377.348022460938	-645.0582275390626	-306.7549438476563	1339.180053710938	-627.2085571289064	-357.6866760253907	1330.820190429688	-597.6777954101564	-365.1091003417969	1263.96484375	-560.9076538085939	-436.6308593750001	1248.904541015625	-618.4240722656251	-313.7496032714844	1075.2607421875	-728.2788085937501	-286.6045227050782	1040.814575195313	-666.7833251953126	-257.5864868164063	1049.824829101563	-759.3041992187501	-247.8881225585938	951.3457641601565	-808.1242675781252	-422.455535888672	1040.307006835938	-937.3868408203127	-423.5777587890626	1008.013916015625	-966.9014892578127	-427.2260131835939	1009.186584472656	-908.0866699218752	-336.2737121582032	813.4804687500002	-1128.282592773438	-300.8729553222657	738.0453491210939	-1142.63525390625	-252.8101043701172	739.7465209960939	-1131.136108398438	-328.3122863769532	683.1581420898439	-1143.246704101563	-342.6862792968751	507.5209350585939	-1130.031005859375	-297.5603332519532	480.390106201172	-1019.426635742188	-293.8151245117188	312.8554077148438	-1075.165771484375	-311.6151123046876	277.2732849121094	-1154.271362304688	-288.9732055664063	270.1409912109376	-1114.043579101563	-296.4819335937501	187.5357360839844	-1095.178344726563	-346.5893859863282	95.0634231567383	-1151.389282226563	-313.2122497558594	99.72605133056643	-1066.507568359375	-185.901840209961	64.72374725341798	-1113.147583007813	-194.7436676025391	61.06735229492189	-1156.323974609375	-240.8101806640626	42.95115280151368	-1197.4892578125	-354.0079956054688	785.7926025390627	-716.2666625976564	-312.1564636230469	739.0256347656251	-692.0463256835939	-279.1712036132813	744.4009399414064	-693.8360595703126	-327.1465148925782	655.3221435546876	-693.2594604492189	-297.8303833007813	509.5872497558595	-683.2814331054689	-243.6179199218751	489.1685791015626	-791.964294433594	-260.7957153320313	380.8092956542969	-675.3097534179689	-334.8020019531251	304.7697448730469	-648.6723632812501	-288.5659179687501	302.4233093261719	-651.1987915039064	-273.4162597656251	250.7912902832032	-678.2670288085939	-348.3446350097657	102.9923934936524	-651.0737915039064	-297.5390930175782	115.0035629272461	-730.5950927734376	-390.6977539062501	60.44957351684572	-714.4168701171876	-179.7906951904297	64.52700042724611	-676.9774169921876	-190.5894470214844	66.35790252685548	-631.8772583007814	-248.7674713134766	35.15726852416993	-591.0206909179689	nan	nan	nan	
2	0.005	39.33625793457032	1461.819702148438	-940.5117797851565	-61.89401245117189	1583.58740234375	-1031.934448242188	-77.1055145263672	1612.860229492188	-887.953063964844	-265.7015380859376	1504.0048828125	-958.1809692382815	-408.3281250000001	1195.044067382813	-939.9698486328127	-160.4493103027344	1373.886474609375	-957.1564941406252	-209.1257781982422	1423.86865234375	-1134.401123046875	-348.6466369628907	1336.619750976563	-1253.106079101563	-318.5313720703126	1298.984252929688	-1271.642456054688	-374.1337280273438	1284.193969726563	-1291.263549804688	-382.6832275390626	1217.895629882813	-1321.324584960938	-442.0750122070314	1206.89599609375	-1244.116577148438	-309.4009704589844	1055.6865234375	-1141.730834960938	-277.2647094726563	1014.465148925781	-1199.972290039063	-249.2140045166016	1042.296875	-1106.840942382813	-204.5431518554688	1449.2392578125	-793.2422485351565	-333.3880310058594	1378.047607421875	-645.6260986328126	-306.8611450195313	1339.90576171875	-627.6107788085939	-357.8479003906251	1331.741455078125	-598.1539916992189	-365.6122436523438	1264.855102539063	-561.2180175781251	-436.6776733398439	1249.8935546875	-619.0009155273439	-314.6658020019532	1075.748779296875	-728.4328002929689	-287.4874877929688	1041.27880859375	-667.0422973632814	-258.3888549804688	1050.128295898438	-759.4008789062501	-249.0007629394532	951.4892578125002	-808.0775146484377	-422.9043884277345	1040.5390625	-937.9086914062502	-424.1459045410157	1008.297668457031	-967.2991333007815	-427.7516479492189	1009.469299316406	-908.5056762695315	-336.4596862792969	813.479675292969	-1128.465942382813	-300.9642333984376	738.0543212890626	-1142.7431640625	-252.9133758544922	739.8121948242189	-1131.203979492188	-328.3631896972657	683.1389770507814	-1143.40087890625	-342.4838867187501	507.5030212402345	-1130.209716796875	-297.4437255859376	480.5245056152345	-1019.508605957031	-293.7714233398438	312.7977905273438	-1075.177612304688	-313.1537780761719	276.9447937011719	-1153.25732421875	-289.1900939941407	270.6110229492188	-1114.005981445313	-296.4401245117188	187.5372009277344	-1095.12158203125	-346.5307312011719	95.02286529541017	-1151.416625976563	-313.1669616699219	99.73622131347659	-1066.549194335938	-185.8699493408203	64.7541961669922	-1113.09130859375	-194.681137084961	61.0776710510254	-1156.301879882813	-240.7940673828126	42.93831634521485	-1197.468994140625	-353.9985656738282	785.9633789062502	-715.8481445312501	-311.9333801269532	739.4053344726564	-691.5824584960939	-279.0296936035157	744.9439086914064	-693.6163940429689	-326.5517578125001	655.8301391601564	-693.0180664062501	-296.6390075683594	510.2182617187501	-682.7399291992189	-242.2192840576172	489.9810791015626	-791.317321777344	-259.8125000000001	381.0610351562501	-675.2555541992189	-334.4982299804688	305.4349365234376	-648.6325683593751	-288.2814636230469	302.8429565429688	-651.3031005859376	-273.5408630371094	251.1830596923829	-678.4619750976564	-349.2198181152344	103.6728668212891	-651.8280639648439	-298.5143737792969	115.7263870239258	-731.4534301757814	-391.5938720703126	61.31740188598634	-715.1169433593751	-181.046127319336	65.04128265380861	-677.9116821289064	-191.7103729248047	66.70391845703126	-632.5025634765626	-249.5603027343751	35.42235183715821	-591.9779663085939	nan	nan	nan	
3	0.01	39.46313858032227	1461.151733398438	-940.978698730469	-61.44980621337892	1583.123291015625	-1032.488159179688	-76.53208923339845	1612.5087890625	-888.5194091796877	-265.3860778808594	1504.011840820313	-958.770935058594	-408.6705627441407	1195.323120117188	-940.4392089843752	-160.3528594970703	1373.698852539063	-957.656433105469	-208.8663024902344	1423.589965820313	-1134.89111328125	-348.6105346679688	1336.442749023438	-1253.446655273438	-318.3549804687501	1298.72607421875	-1271.95703125	-374.1103820800782	1284.040161132813	-1291.57568359375	-382.7479553222657	1217.791381835938	-1321.59130859375	-442.2442626953126	1206.868408203125	-1244.332763671875	-309.6391601562501	1055.598510742188	-1141.888061523438	-277.5711975097657	1014.31787109375	-1200.09716796875	-249.4603118896485	1042.131225585938	-1107.03515625	-204.3286590576172	1449.422241210938	-793.8457031250002	-333.4348144531251	1378.694458007813	-646.0826416015626	-306.9075317382813	1340.535034179688	-628.0699462890626	-358.0943908691407	1332.438110351563	-598.6814575195314	-366.3477783203126	1265.664672851563	-561.4367675781251	-437.0953369140626	1250.622802734375	-619.4645996093751	-315.7013244628907	1076.306518554688	-728.4780273437501	-288.1463928222657	1041.815551757813	-667.2116088867189	-259.2507324218751	1050.66796875	-759.3923950195314	-249.5618591308594	951.5909423828127	-808.2210693359377	-423.4155578613282	1040.780639648438	-938.3255004882815	-424.7369384765626	1008.5712890625	-967.671081542969	-428.3438110351564	1009.777709960938	-908.9155883789065	-336.7465820312501	813.467956542969	-1128.583251953125	-301.0516967773438	738.0894165039064	-1142.859130859375	-253.0841979980469	739.8926391601564	-1131.240600585938	-328.4741821289063	683.1280517578126	-1143.561401367188	-342.2127075195313	507.5001525878907	-1130.325317382813	-297.2900390625001	480.5720214843751	-1019.594604492188	-293.7546997070313	312.7787170410157	-1075.196044921875	-312.9583435058594	276.8917236328126	-1153.294311523438	-289.0941162109376	270.5575256347657	-1113.962768554688	-296.4428405761719	187.4652252197266	-1095.06591796875	-346.4590148925782	95.08723449707033	-1151.464599609375	-313.1428527832032	99.77732086181643	-1066.508666992188	-185.8753051757813	64.7252883911133	-1113.111206054688	-194.7812805175782	61.08712768554689	-1156.270263671875	-240.8214111328126	42.94723129272462	-1197.437622070313	-354.1142272949219	786.177917480469	-715.3467407226564	-311.7312622070313	740.0021362304689	-691.1392211914064	-278.7610168457032	745.6048583984376	-693.3461914062501	-325.8857116699219	656.1014404296876	-692.4226074218751	-295.2575988769532	510.6961364746095	-682.2352905273439	-240.7586212158204	490.6918334960939	-790.4902343750002	-258.8859252929688	381.2615966796876	-674.9546508789064	-334.0790710449219	305.9875793457032	-648.7399291992189	-288.0185852050782	303.2107238769532	-651.4675903320314	-273.7221069335938	251.6250915527344	-678.7818603515626	-350.1050415039063	104.4814987182617	-652.6473999023439	-299.7175292968751	116.5556564331055	-732.2769775390626	-392.9404602050782	62.10282135009767	-716.0228881835939	-182.2616729736328	65.99078369140626	-679.4958496093751	-192.7856445312501	67.33627319335939	-633.8010864257814	-250.5444030761719	36.03918457031251	-593.2880249023439	nan	nan	nan	
4	0.015	39.48593902587891	1460.644409179688	-941.3339843750002	-61.13772583007814	1582.6845703125	-1033.003784179688	-76.09851837158205	1612.16357421875	-888.9511718750002	-265.0788574218751	1504.01806640625	-959.3211059570315	-409.0320434570314	1195.519775390625	-940.8575439453127	-160.2881164550782	1373.589233398438	-957.9854125976565	-208.5989379882813	1423.280395507813	-1135.346557617188	-348.4211425781251	1336.31787109375	-1253.755004882813	-318.2534179687501	1298.492797851563	-1272.209716796875	-374.0836486816407	1283.893798828125	-1291.812622070313	-382.8329467773438	1217.665161132813	-1321.778930664063	-442.3256835937501	1206.84619140625	-1244.487670898438	-309.7976989746094	1055.458862304688	-1141.942504882813	-277.9389953613282	1014.076782226563	-1200.180908203125	-249.7042846679688	1041.915771484375	-1107.108520507813	-204.3220520019532	1449.460327148438	-794.259460449219	-333.5389099121094	1379.227172851563	-646.5119628906251	-307.1454467773438	1341.076171875	-628.3848876953126	-358.3579406738282	1333.133056640625	-599.1399536132814	-366.6170654296876	1266.36865234375	-561.9794311523439	-437.9381103515626	1251.534301757813	-619.7928466796876	-316.3086547851563	1076.781982421875	-728.6024169921876	-289.7378845214844	1041.723999023438	-667.0101928710939	-259.6304931640626	1050.450927734375	-759.0954589843751	-250.4693756103516	951.8450927734377	-807.7434082031252	-423.7947387695314	1040.993530273438	-938.6787719726565	-425.2916259765626	1008.739990234375	-967.9566040039065	-428.8068237304689	1010.079284667969	-909.213317871094	-337.0257263183594	813.4292602539065	-1128.609375	-301.2276611328126	738.1525268554689	-1142.891357421875	-253.2949371337891	740.0063476562501	-1131.27490234375	-328.6422729492188	683.1403808593751	-1143.619873046875	-342.0382385253907	507.5057678222657	-1130.425537109375	-297.7209472656251	479.9536743164064	-1019.023010253906	-293.7178649902344	312.7743530273438	-1075.16650390625	-312.7432861328126	276.8708496093751	-1153.314086914063	-288.9806823730469	270.5068664550782	-1113.887573242188	-296.3630065917969	187.5137023925782	-1095.031494140625	-346.4902954101563	95.05313873291017	-1151.483642578125	-313.1217041015626	99.78435516357425	-1066.529052734375	-185.8396148681641	64.73776245117189	-1113.126220703125	-195.6773529052735	61.51364135742189	-1156.558349609375	-240.8238677978516	42.96350860595704	-1197.435424804688	-354.1535339355469	786.3859863281252	-714.8574829101564	-311.4606323242188	740.3240356445314	-690.8198242187501	-278.3173828125001	746.1781616210939	-693.2677612304689	-325.1481323242188	656.1666870117189	-691.8500366210939	-294.0992126464844	511.3332519531251	-681.6713867187501	-239.5153198242188	491.5977172851564	-789.8015747070315	-258.7174377441407	381.4562377929688	-674.7656860351564	-333.9733581542969	306.6408996582032	-648.9085693359376	-287.8053588867188	303.5295715332032	-651.7346191406251	-273.8905944824219	252.0300598144532	-679.1135864257814	-351.3292846679688	105.2173690795899	-653.4367675781251	-300.9019470214844	117.2485885620117	-733.2067871093751	-394.1803588867189	62.87241744995119	-716.6212158203126	-182.9666137695313	66.37412261962892	-680.6653442382814	-193.9079589843751	67.92025756835939	-634.9714965820314	-251.8558654785157	36.71765518188477	-594.3076171875001	nan	nan	nan	
